<?xml version="1.0" encoding="UTF-8"?>
<svg xmlns="http://www.w3.org/2000/svg" width="512" height="512" viewBox="0 0 128 128"><path style="fill: #fff;" d="M126.25,108.285h-8.188v-8.75a1.75,1.75,0,0,0-1.75-1.75h-9.875V58.16h3.875a1.749,1.749,0,0,0,1.75-1.75V49.723h2.375a1.75,1.75,0,0,0,1.75-1.75V39.535a1.75,1.75,0,0,0-1.75-1.75h-8V7.465a1.749,1.749,0,0,0-1.75-1.75H95.87a1.749,1.749,0,0,0-1.621,1.09l-3.6,8.848-6.417,2.863-2.116-4.985a1.749,1.749,0,0,0-1.048-.973L76,10.836V7.465a1.749,1.749,0,0,0-1.75-1.75H23.312a1.75,1.75,0,0,0-1.75,1.75V18.59a1.751,1.751,0,0,0,1.75,1.75h4.546l2.29,5.2a1.75,1.75,0,0,0,1.6,1.046h3.894L34.6,28.465H23.312a1.75,1.75,0,0,0-1.75,1.75v7.57h-8a1.751,1.751,0,0,0-1.75,1.75v8.438a1.751,1.751,0,0,0,1.75,1.75h2.375V56.41a1.75,1.75,0,0,0,1.75,1.75h3.875V97.785H11.687a1.751,1.751,0,0,0-1.75,1.75v8.75H1.75A1.75,1.75,0,0,0,0,110.035v10.5a1.749,1.749,0,0,0,1.75,1.75h124.5a1.749,1.749,0,0,0,1.75-1.75v-10.5A1.75,1.75,0,0,0,126.25,108.285Zm-23.313-10.5H85.062V83.331l2.1,1.568,2.819,4.934a1.749,1.749,0,0,0,2.176.754l5.25-2.125a1.75,1.75,0,1,0-1.312-3.244l-3.833,1.551-2.242-3.922a1.751,1.751,0,0,0-.472-.534l-4.485-3.35V58.16h17.875Zm-56.5,0V58.16h3.875a1.749,1.749,0,0,0,1.75-1.75V49.723h2.375a1.75,1.75,0,0,0,1.75-1.75V39.535a1.75,1.75,0,0,0-1.75-1.75h-7.86A12.32,12.32,0,0,1,58.75,27.223h10.5A12.32,12.32,0,0,1,81.423,37.785H73.562a1.751,1.751,0,0,0-1.75,1.75v8.438a1.751,1.751,0,0,0,1.75,1.75h2.375V56.41a1.75,1.75,0,0,0,1.75,1.75h3.875V97.785ZM108.562,54.66H79.437V49.723h29.125Zm4.125-8.437H75.312V41.285h37.375ZM25.062,31.965H35.625a1.749,1.749,0,0,0,1.528-.9l3-5.375a1.75,1.75,0,0,0-1.528-2.6H32.892l-2.29-5.2A1.751,1.751,0,0,0,29,16.84H25.062V9.215H72.5V12.09a1.751,1.751,0,0,0,1.186,1.657l5.509,1.873,2.506,5.9a1.752,1.752,0,0,0,2.324.914l8.688-3.875a1.754,1.754,0,0,0,.908-.938l3.426-8.41h5.89v28.57H84.966A15.834,15.834,0,0,0,69.25,23.723H58.75A15.834,15.834,0,0,0,43.034,37.785H25.062Zm-9.75,9.32H52.687v4.938H15.312Zm4.125,8.438H48.562V54.66H19.437Zm5.625,8.437H42.937V68.81l-4.045.545a1.751,1.751,0,0,0-1.517,1.735v3.861l-2.621,1.5A1.75,1.75,0,0,0,36.5,79.491L40,77.483a1.749,1.749,0,0,0,.879-1.518V72.62l2.062-.278V97.785H25.062ZM13.437,101.285H114.562v7H13.437Zm111.063,17.5H3.5v-7h121Z"/></svg>
