<svg id="Capa_1" enable-background="new 0 0 512 512" height="512" viewBox="0 0 512 512" width="512" xmlns="http://www.w3.org/2000/svg"><g><path fill="#fff" d="m348.747 394.252-47.747-9.549v-15.641c23.999-15.041 40-41.711 40-72.062v-80c0-24.813-20.186-45-45-45h-95c-33.084 0-60 26.916-60 60 0 22.159 12.084 41.537 30 51.928v13.072c0 30.351 16.001 57.022 40 72.062v15.641l-47.747 9.549c-30.277 6.056-52.253 32.861-52.253 63.738v39.01c0 8.284 6.716 15 15 15h260c8.284 0 15-6.716 15-15v-39.01c0-30.877-21.976-57.682-52.253-63.738zm-157.747-147.252v13.286c-11.641-4.127-20-15.249-20-28.286 0-16.542 13.458-30 30-30h95c8.271 0 15 6.729 15 15v15h-105c-8.284 0-15 6.716-15 15zm10 50v-5h5c8.284 0 15-6.716 15-15v-15h90v35c0 30.327-24.673 55-55 55s-55-24.673-55-55zm70 83.648v16.352c0 8.271-6.728 15-15 15-8.271 0-15-6.729-15-15v-16.352c4.873.872 9.88 1.352 15 1.352s10.127-.48 15-1.352zm100 101.352h-230v-24.01c0-16.626 11.833-31.061 28.136-34.32l45.443-9.088c6.86 16.101 22.843 27.418 41.421 27.418s34.561-11.317 41.421-27.418l45.443 9.088c16.303 3.26 28.136 17.694 28.136 34.32z"/><path fill="#fff" d="m208.339 96.82-6.113 35.645c-.965 5.627 1.349 11.314 5.968 14.671 4.618 3.354 10.742 3.799 15.797 1.142l32.009-16.83 32.01 16.829c2.195 1.153 4.592 1.723 6.978 1.723 3.11 0 6.205-.966 8.818-2.864 4.619-3.356 6.933-9.044 5.968-14.671l-6.113-35.645 25.896-25.243c4.089-3.985 5.561-9.946 3.796-15.377-1.765-5.43-6.458-9.388-12.108-10.208l-35.789-5.2-16.005-32.431c-2.527-5.12-7.741-8.361-13.451-8.361s-10.924 3.241-13.451 8.361l-16.005 32.431-35.789 5.2c-5.65.82-10.344 4.778-12.108 10.208-1.765 5.431-.293 11.392 3.796 15.377zm30.323-27.474c4.886-.71 9.109-3.778 11.294-8.205l6.044-12.247 6.044 12.247c2.185 4.427 6.408 7.495 11.294 8.205l13.516 1.964-9.779 9.533c-3.536 3.446-5.149 8.411-4.314 13.277l2.309 13.46-12.088-6.355c-2.186-1.148-4.583-1.723-6.98-1.723s-4.795.574-6.98 1.723l-12.088 6.355 2.309-13.46c.835-4.866-.778-9.831-4.314-13.277l-9.779-9.533z"/><path fill="#fff" d="m511.265 116.2c-1.765-5.43-6.458-9.388-12.108-10.208l-35.789-5.2-16.005-32.431c-2.527-5.12-7.741-8.361-13.451-8.361s-10.924 3.241-13.451 8.361l-16.005 32.431-35.789 5.2c-5.65.82-10.344 4.778-12.108 10.208-1.765 5.431-.293 11.392 3.796 15.377l25.896 25.243-6.113 35.645c-.965 5.627 1.349 11.314 5.968 14.671 4.618 3.354 10.742 3.798 15.797 1.142l32.01-16.829 32.01 16.829c2.195 1.153 4.592 1.723 6.979 1.723 3.11 0 6.205-.966 8.818-2.864 4.619-3.356 6.933-9.044 5.968-14.671l-6.113-35.645 25.896-25.243c4.087-3.986 5.559-9.947 3.794-15.378zm-56.279 24.643c-3.536 3.446-5.149 8.411-4.314 13.277l2.309 13.46-12.088-6.355c-2.186-1.148-4.583-1.723-6.98-1.723s-4.795.574-6.98 1.723l-12.088 6.355 2.309-13.46c.835-4.866-.778-9.831-4.314-13.277l-9.779-9.533 13.516-1.964c4.886-.71 9.109-3.778 11.294-8.205l6.044-12.247 6.044 12.247c2.185 4.427 6.408 7.495 11.294 8.205l13.516 1.964z"/><path fill="#fff" d="m125.895 207.136c4.619-3.356 6.933-9.044 5.968-14.671l-6.113-35.645 25.896-25.243c4.089-3.985 5.561-9.946 3.796-15.377-1.765-5.43-6.458-9.388-12.108-10.208l-35.789-5.2-16.006-32.431c-2.527-5.12-7.741-8.361-13.451-8.361s-10.924 3.241-13.451 8.361l-16.005 32.431-35.789 5.2c-5.65.82-10.344 4.778-12.108 10.208-1.765 5.431-.293 11.392 3.796 15.377l25.896 25.243-6.113 35.645c-.965 5.627 1.349 11.314 5.968 14.671 4.618 3.354 10.742 3.798 15.797 1.142l32.01-16.829 32.01 16.829c2.195 1.153 4.592 1.723 6.979 1.723 3.109-.001 6.203-.967 8.817-2.865zm-26.733-66.293c-3.536 3.446-5.149 8.411-4.314 13.277l2.309 13.46-12.088-6.355c-2.186-1.148-4.583-1.723-6.98-1.723s-4.795.574-6.98 1.723l-12.089 6.355 2.309-13.46c.835-4.866-.778-9.831-4.314-13.277l-9.779-9.533 13.516-1.964c4.886-.71 9.109-3.778 11.294-8.205l6.044-12.247 6.044 12.247c2.185 4.427 6.408 7.495 11.294 8.205l13.516 1.964z"/></g></svg>