<svg height="512pt" viewBox="0 -38 512 512" width="512pt" xmlns="http://www.w3.org/2000/svg"><path style="fill: #fff;" d="m492 320.75h-18.914062c-.445313-4.960938-1.0625-9.886719-1.835938-14.769531 78.945312-116.359375 28.238281-239.375-41.839844-300.949219-14.679687-12.898438-37.28125.914062-32.597656 19.898438.070312.292968 7.152344 29.375 7.78125 64.105468.4375 24.238282-2.238281 55.441406-15.550781 78.65625-37.953125-29.421875-84.273438-45.371094-133.042969-45.371094s-95.089844 15.949219-133.042969 45.371094c-21.492187-37.484375-17.445312-103.121094-7.773437-142.742187 4.726562-19.007813-17.90625-32.820313-32.589844-19.917969-55.878906 49.097656-129.335938 171.988281-41.84375 300.949219-.773438 4.882812-1.390625 9.808593-1.835938 14.765625h-18.914062c-11.046875 0-20 8.976562-20 20.042968v76.164063c0 11.070313 8.953125 20.042969 20 20.042969h472c11.046875 0 20-8.972656 20-20.042969v-76.164063c0-11.066406-8.953125-20.039062-20-20.039062zm-47.425781-232.972656c30.652343 52.148437 37.445312 108.410156 11.085937 165.03125-9.097656-20.71875-21.46875-40.023438-36.835937-57.28125 17.992187-26.179688 26.648437-62.304688 25.75-107.75zm-168.574219 75.757812c82.207031 9.253906 147.652344 74.828125 156.882812 157.214844h-156.882812zm-40 0v157.214844h-156.882812c9.230468-82.386719 74.675781-147.960938 156.882812-157.214844zm-168.574219-75.757812c-.898437 45.445312 7.757813 81.570312 25.75 107.75-15.367187 17.257812-27.738281 36.5625-36.835937 57.28125-25.550782-54.882813-20.65625-111.015625 11.085937-165.03125zm404.574219 309.136718h-432v-36.078124h432zm0 0"/></svg>